<?xml version="1.0" encoding="utf-8"?>
<!-- Generator: Adobe Illustrator 27.4.0, SVG Export Plug-In . SVG Version: 6.00 Build 0)  -->
<svg version="1.1" id="Layer_1" xmlns="http://www.w3.org/2000/svg" xmlns:xlink="http://www.w3.org/1999/xlink" x="0px" y="0px"
	 viewBox="0 0 425 453.2" style="enable-background:new 0 0 425 453.2;" xml:space="preserve">
<style type="text/css">
	.st0{opacity:0.8;}
	.st1{font-family:'Arial-BoldMT';}
	.st2{font-size:23px;}
	.st3{fill:none;}
	.st4{font-family:'Arial-ItalicMT';}
	.st5{font-size:15px;}
	.st6{font-family:'ArialMT';}
	.st7{fill:#58595B;}
	.st8{enable-background:new    ;}
	.st9{font-family:'MyriadPro-Regular';}
	.st10{font-family:'ArialHebrew-Light';}
	.st11{fill:none;stroke:#58595B;stroke-width:0.5;stroke-miterlimit:10;}
	.st12{font-size:22px;}
	.st13{font-size:10px;}
	.st14{fill:none;stroke:#000000;stroke-width:0.5;stroke-miterlimit:10;}
	.st15{fill:#8FCAD8;}
	.st16{fill:none;stroke:#62B5D7;stroke-width:0.5;stroke-miterlimit:10;}
	
		.st17{opacity:0.5;fill:#FFFFFF;stroke:#FFFFFF;stroke-width:3;stroke-linecap:round;stroke-linejoin:round;stroke-miterlimit:10;enable-background:new    ;}
	.st18{fill:none;stroke:#8FCAD8;stroke-linecap:round;stroke-linejoin:round;stroke-miterlimit:10;}
	.st19{fill:none;stroke:#62B5D7;stroke-linecap:round;stroke-linejoin:round;}
	.st20{fill:none;stroke:#62B5D7;stroke-linecap:round;stroke-linejoin:round;stroke-dasharray:0,2.8991;}
</style>
<g id="godzilladibu01.psd" class="st0">
	
		<image style="overflow:visible;enable-background:new    ;" width="800" height="679" id="godzilladibu01_2_" xlink:href="186220D072C217AB.png"  transform="matrix(-0.4507 0 0 0.4507 452.7045 148.9944)">
	</image>
</g>
<g id="godzilla.psd_1_">
	
		<image style="overflow:visible;enable-background:new    ;" width="800" height="593" id="godzilla_2_" xlink:href="186220D072C217A9.png"  transform="matrix(0.5588 0 0 0.5588 -17.3132 117.9544)">
	</image>
</g>
<text transform="matrix(0.9989 0 0 1 3.2241 23.1743)" class="st1 st2">2019</text>
<rect x="2.2" y="36.1" class="st3" width="213" height="52.5"/>
<text transform="matrix(1 0 0 1 2.2332 47.3048)" class="st4 st5">Godzilla: Rey de los Monstruos </text>
<text transform="matrix(1 0 0 1 2.2332 65.3048)" class="st6 st5">por Legendary Films y</text>
<text transform="matrix(1 0 0 1 2.2332 83.3048)" class="st6 st5">dirigida por Michael Dougherty</text>
<text transform="matrix(0.9989 0 0 1 366.7896 23.1743)" class="st7 st1 st2">2014</text>
<rect x="253.9" y="36.1" class="st3" width="167.4" height="51.5"/>
<text transform="matrix(1 0 0 1 265.3578 47.3048)" class="st7 st4 st5">Godzilla </text>
<text transform="matrix(1 0 0 1 323.7556 47.3048)" class="st8"><tspan x="0" y="0" class="st7 st9 st5">por</tspan><tspan x="21.7" y="0" class="st7 st10 st5"> </tspan><tspan x="25.8" y="0" class="st7 st9 st5">Legendary</tspan><tspan x="92.3" y="0" class="st7 st10 st5"> </tspan></text>
<text transform="matrix(1 0 0 1 294.1967 65.3048)" class="st8"><tspan x="0" y="0" class="st7 st9 st5">Films</tspan><tspan x="32.8" y="0" class="st7 st10 st5"> </tspan><tspan x="37" y="0" class="st7 st9 st5">y</tspan><tspan x="44" y="0" class="st7 st10 st5"> </tspan><tspan x="48.2" y="0" class="st7 st9 st5">dirigido por</tspan><tspan x="122" y="0" class="st7 st10 st5"> </tspan></text>
<text transform="matrix(1 0 0 1 316.3815 83.3048)" class="st8"><tspan x="0" y="0" class="st7 st9 st5">Gareth</tspan><tspan x="42.6" y="0" class="st7 st10 st5"> </tspan><tspan x="46.8" y="0" class="st7 st9 st5">Edwards</tspan></text>
<line class="st11" x1="327.7" y1="151.4" x2="421" y2="151.4"/>
<text transform="matrix(1 0 0 1 2.233 115.4924)" class="st4 st12">119.8</text>
<text transform="matrix(1 0 0 1 56.3414 115.4924)" class="st4 st13"> </text>
<text transform="matrix(1 0 0 1 58.7926 115.4924)" class="st4 st5">metros</text>
<text transform="matrix(1 0 0 1 336.8376 147.2091)" class="st7 st4 st12">108</text>
<text transform="matrix(1 0 0 1 373.1248 147.2091)" class="st7 st4 st13"> </text>
<text transform="matrix(1 0 0 1 375.5759 147.2091)" class="st7 st4 st5">metros</text>
<line class="st14" x1="2.5" y1="120.5" x2="111" y2="120.5"/>
<g>
	<text transform="matrix(1 0 0 1 196.5974 147.2095)" class="st15 st4 st12">93</text>
	<text transform="matrix(1 0 0 1 220.7888 147.2095)" class="st15 st4 st13"> </text>
	<text transform="matrix(1 0 0 1 223.24 147.2095)" class="st15 st4 st5">metros</text>
	<text transform="matrix(1 0 0 1 168.097 122.9323)" class="st15 st6 st5">Estatua de la Libertad</text>
</g>
<line class="st16" x1="215.4" y1="189.5" x2="259.8" y2="189.5"/>
<path class="st17" d="M287.6,433.1v-11.2h-0.8v-0.7h-10.7l-4.5-10.5l-0.9-0.8v-1.4c0.4-0.1,1.1-0.4,1.1-1.6c0-1.3-1.1-1.3-1.1-1.3
	v-2.4h0.8l1.3-0.9v-5h-2.2v3.7h-2.1v-5.4l-1.6-2.4v-6.2h1V386h-1.3c0,0-0.8-7.6-0.8-9.8c0-2.1,0-7.7,0-7.7l0.3-0.3v-1h0.9v-0.9h-1
	v-2.1h1v-0.8h1.9v-2h-1.7v-3.3h0.7v-2.2h-2v-0.5h-0.7v-1.6h-0.7v-3.7h1.1v-3l-3.7-1.6h-1.1v-5.9c0,0-2-0.2-2,0l-0.4-0.1
	c0,0,0-0.3-0.2-0.4s-1.1-0.5-1.1-0.5s-0.5-1.2-0.7-1.6c-0.2-0.4-0.3-12.5-0.3-12.5s0.1-1.2,0.4-1.5c0.3-0.3,0.3-1.4,0.3-1.5
	s0.3-0.3,0.4-0.3c0.1,0,0.8-0.1,0.9-0.3c0-0.1,0.1-1.8,0-2.2c-0.1-0.4-0.2-1.8-0.3-2.1c0-0.3-0.1-5.2-0.1-5.2s0.3-0.6,0.4-1
	c0.1-0.3,0-0.8,0-1c-0.1-0.3-0.2-1.6-0.2-2c0-0.4,1-1,1.2-1.5c0.2-0.5,0.3-4.5,0.2-5c0-0.5-0.2-2.1-0.1-2.6c0.1-0.6,0-5.9-0.2-6.9
	s-0.6-3.9-0.6-4.4c0-0.4,0-0.8,0-0.8s0.6-0.1,0.8-0.3c0.3-0.1,0.6-0.8,0.7-1.1c0-0.3,0.3-1.1,0.5-1.5c0.2-0.4,0.4-2.3,0.4-2.3l3.2,2
	l4.7-7.8c0,0,0.7,0,0.9-0.2s0.5-0.3,0.7-0.5c0.2-0.2,0.5-0.8,0.5-0.8s0.5,0.2,0.6-0.3c0.1-0.5,0.1-0.8,0.3-1s0.4-0.5,0.6-1
	c0.2-0.5,0.3-1.3,0.2-1.6c0-0.3-0.3-1.2-0.3-1.5c0-0.3,0.2-1,0.3-1.3c0.2-0.3,1.3-2.1,1.3-2.1l0.4-1.8l-9.7-5.2l-6,10.5
	c0,0-0.5-1.5-0.6-1.8c-0.1-0.3-0.5-1.6-0.8-2.2c-0.3-0.6-0.8-1.2-1-1.9c-0.2-0.7-0.3-3.5-0.4-4.3c-0.2-0.7-0.3-0.8-0.3-1
	s0-1.8-0.3-2.5c-0.3-0.8-1.2-2-1.4-2.4c-0.2-0.4-1.1-1.4-1.2-1.7c-0.1-0.3-0.4-1.6-0.5-2.1c-0.1-0.6-0.2-1.8,0.1-2.4
	c0.3-0.6,0.6-1.4,0.6-2.2c0-0.9-0.3-1.4-0.3-1.9c0-0.5-0.2-2.1-0.1-2.6c0-0.4,0.2-2.1,0.4-2.4c0.2-0.3,0.3-1,0.3-1l7.9-0.6v-0.6
	l-8.1,0.1c0,0,0-0.9-0.4-1.5l7-3.6l-0.1-0.4l-7.8,2.4c0,0-0.8-0.7-1.2-1l4.1-4.7l-0.4-0.2l-5.9,4.1l-1.2-0.1l-1-6.2h-0.5l-1.1,6.2
	L243,230l-5.9-4.1l-0.3,0.3l4.2,4.7c0,0-1,0.5-1.5,1.2l-3.9-1.4c0,0-0.2-2.6-0.4-3.8c-0.2-1.2-0.6-4.1-0.8-4.9
	c-0.1-0.8-0.3-4.7-0.2-5s0.2-0.8,0.3-1.2c0.1-0.4,0.1-2.3,0.2-3.2c0.1-0.9,0-1.3-0.2-1.8c-0.2-0.4-0.4-1.2-0.6-1.4
	c-0.2-0.2-0.5-0.4-0.4-0.7c0.1-0.3,0.4-0.9,0.4-1.3c0-0.4,0-0.9,0.1-1.2c0.1-0.3,0.3-0.6,0.4-0.8c0.1-0.1,0.6-0.2,0.6-0.2l0.3-0.3
	h1.1v-0.4h0.5v-0.7h-0.5v-2l0.4-0.3v-0.5h-3.5v-2.3c0,0,0.8-0.8,1-2c0.2-1.2-0.2-1.9-0.4-2.6c-0.3-0.7-1.1-2.5-1.2-3.8
	c0,0-0.5,2.1-1.1,2.5c-0.7,0.4-0.6,0.2-0.7-0.4c-0.1-0.5-0.3-0.8-0.3-0.8s-1,0.2-1,1.4c-0.1,1.1,0.2,1.5,0,1.8
	c-0.2,0.4-0.6,0.4-0.6,0.4s-0.2,1.5,0.2,2.3c0.4,0.8,1,1.1,1,1.1v2.4h-3.3v0.5l0.2,0.2v2h-0.5v0.7h0.6l0.2,0.4h1l0.1,0.3h0.7v1.8
	h0.5v1.1c0,0-0.6-0.1-0.6,0.4c-0.1,0.5,0.1,1,0.1,1s-0.5,0.1-0.6,0.5c-0.1,0.4,0,1.1,0,1.1s-0.5,0.3-0.4,0.7
	c0.1,0.4,0.6,1.1,0.6,1.1s-0.2,1.5,0.1,2.1c0.3,0.6,0.7,1.4,0.7,1.4v5.6c0,0-0.3,0.6-0.4,1.1c-0.1,0.6-0.3,3.4-0.4,4.3
	c-0.1,0.9-0.1,1.9,0,2.7c0.1,0.8,0.7,3.1,0.8,3.7c0.1,0.6-0.1,2.9-0.1,2.9s-0.7,1.3-1.4,2.1s-2.6,3.8-2.9,5c-0.3,1.2-0.2,3,0.1,3.5
	c0.3,0.5,0.9,1.1,0.9,1.1s-0.4,1.5-0.2,2c0.2,0.5,1.1,0.7,1.1,0.7s0.7,0.6,0.7,1.1c0,0.6-0.2,3.6-0.3,4.1s0,1.4,0.1,1.7
	c0.1,0.3-0.5,0.7-0.5,1.3c0.1,0.5,0.6,1.4,0.6,1.6c0,0.2,0.3,1.2,0.6,1.8c0.3,0.6,0.3,1.5,0.3,2.1c-0.1,0.6,0,6.4,0,6.4
	s-1.7,1.9-1.8,2.7c-0.2,0.7-0.2,1.6,0.8,2.2c0.9,0.6,2.1,0.1,2.4,0.3c0.3,0.2,0.6,0.8,0.6,0.8l-0.1,3.6c0,0-2.2,3.6-2.6,4.2
	c-0.4,0.6-0.9,1.1-0.7,2.5c0.2,1.4,1.5,1.5,1.5,1.5s0.2,2.5,0.3,3.1c0.2,0.7,0.3,1.5,0.4,2.4c0.1,0.9,0.1,4.3,0.1,5.5
	c0.1,1.3,0.1,3.1,0.1,3.4c-0.1,0.3-0.9,1-0.9,1.8s0.1,1.1,0.3,1.4c0.2,0.3,0.2,0.9,0.2,1.2c0,0.3-0.1,2.5-0.2,2.9
	c-0.1,0.5-0.7,1.9-0.7,2.8c0,0.9,0.1,4,0.1,5c0,0.9,0.2,3.4,0.2,4c0,0.6-0.3,1.7-0.2,2.7c0.1,1-0.1,1.9,0.1,2.5
	c0.1,0.5,0.1,1.6,0,1.9c-0.1,0.3-0.6,0.1-0.7,0.7c-0.1,0.6-0.3,2.5-0.3,2.5s-1,1-1.3,1.4c-0.3,0.4-1,1.3-1.3,1.9
	c-0.3,0.6-0.6,1.3-0.8,1.6c-0.2,0.3-0.1,0.9-0.2,1.1c-0.1,0.2-0.2,0.8-0.2,0.6s-2,0-2,0v5.9h-1.1l-3.7,1.6v3h1.1v3.7h-0.7v1.6h-0.7
	v0.5h-2v2.2h0.7v3.3h-1.7v2h1.9v0.8h1v2.1h-1v0.9h0.9v1l0.3,0.3c0,0,0,5.6,0,7.7c0,2.1-0.8,9.8-0.8,9.8h-1.3v1.1h1v6.2l-1.6,2.4v5.4
	h-2.1v-3.7h-2.2v5l1.3,0.9h0.8v2.4c0,0-1.1,0.1-1.1,1.3c0,1.3,0.7,1.6,1.1,1.6v1.4l-0.9,0.8l-4.5,10.5h-10.7v0.7h-0.8v11.2
	 M235.9,232.1l2.9,1l0.1,0.6l-0.7,0.6l-2,0L235.9,232.1z M239.3,240.8c-0.2,0.2-0.8,0.7-1,0.9c-0.2,0.2-0.4,0.7-0.5,0.9
	c0,0.2-0.5,0.2-0.4,0c0-0.2-0.1-2.3-0.1-2.5c0-0.3,0.1-2,0-2.5c-0.1-0.6-0.4-0.9-0.4-0.9s-0.2-0.6-0.3-0.8l1.7,0.1
	c0,0,0.3,0.6,0.3,0.8c0,0.2,0.3,0.9,0.3,1.3c0,0.3,0,1.2,0.1,1.5c0,0.2,0.4,0.5,0.4,0.6C239.4,240.3,239.4,240.6,239.3,240.8z"/>
<path class="st18" d="M287.6,433.1v-11.2h-0.8v-0.7h-10.7l-4.5-10.5l-0.9-0.8v-1.4c0.4-0.1,1.1-0.4,1.1-1.6c0-1.3-1.1-1.3-1.1-1.3
	v-2.4h0.8l1.3-0.9v-5h-2.2v3.7h-2.1v-5.4l-1.6-2.4v-6.2h1V386h-1.3c0,0-0.8-7.6-0.8-9.8c0-2.1,0-7.7,0-7.7l0.3-0.3v-1h0.9v-0.9h-1
	v-2.1h1v-0.8h1.9v-2h-1.7v-3.3h0.7v-2.2h-2v-0.5h-0.7v-1.6h-0.7v-3.7h1.1v-3l-3.7-1.6h-1.1v-5.9c0,0-2-0.2-2,0l-0.4-0.1
	c0,0,0-0.3-0.2-0.4s-1.1-0.5-1.1-0.5s-0.5-1.2-0.7-1.6c-0.2-0.4-0.3-12.5-0.3-12.5s0.1-1.2,0.4-1.5c0.3-0.3,0.3-1.4,0.3-1.5
	s0.3-0.3,0.4-0.3c0.1,0,0.8-0.1,0.9-0.3c0-0.1,0.1-1.8,0-2.2c-0.1-0.4-0.2-1.8-0.3-2.1c0-0.3-0.1-5.2-0.1-5.2s0.3-0.6,0.4-1
	c0.1-0.3,0-0.8,0-1c-0.1-0.3-0.2-1.6-0.2-2c0-0.4,1-1,1.2-1.5c0.2-0.5,0.3-4.5,0.2-5c0-0.5-0.2-2.1-0.1-2.6c0.1-0.6,0-5.9-0.2-6.9
	s-0.6-3.9-0.6-4.4c0-0.4,0-0.8,0-0.8s0.6-0.1,0.8-0.3c0.3-0.1,0.6-0.8,0.7-1.1c0-0.3,0.3-1.1,0.5-1.5c0.2-0.4,0.4-2.3,0.4-2.3l3.2,2
	l4.7-7.8c0,0,0.7,0,0.9-0.2s0.5-0.3,0.7-0.5c0.2-0.2,0.5-0.8,0.5-0.8s0.5,0.2,0.6-0.3c0.1-0.5,0.1-0.8,0.3-1s0.4-0.5,0.6-1
	c0.2-0.5,0.3-1.3,0.2-1.6c0-0.3-0.3-1.2-0.3-1.5c0-0.3,0.2-1,0.3-1.3c0.2-0.3,1.3-2.1,1.3-2.1l0.4-1.8l-9.7-5.2l-6,10.5
	c0,0-0.5-1.5-0.6-1.8c-0.1-0.3-0.5-1.6-0.8-2.2c-0.3-0.6-0.8-1.2-1-1.9c-0.2-0.7-0.3-3.5-0.4-4.3c-0.2-0.7-0.3-0.8-0.3-1
	s0-1.8-0.3-2.5c-0.3-0.8-1.2-2-1.4-2.4c-0.2-0.4-1.1-1.4-1.2-1.7c-0.1-0.3-0.4-1.6-0.5-2.1c-0.1-0.6-0.2-1.8,0.1-2.4
	c0.3-0.6,0.6-1.4,0.6-2.2c0-0.9-0.3-1.4-0.3-1.9c0-0.5-0.2-2.1-0.1-2.6c0-0.4,0.2-2.1,0.4-2.4c0.2-0.3,0.3-1,0.3-1l7.9-0.6v-0.6
	l-8.1,0.1c0,0,0-0.9-0.4-1.5l7-3.6l-0.1-0.4l-7.8,2.4c0,0-0.8-0.7-1.2-1l4.1-4.7l-0.4-0.2l-5.9,4.1l-1.2-0.1l-1-6.2h-0.5l-1.1,6.2
	L243,230l-5.9-4.1l-0.3,0.3l4.2,4.7c0,0-1,0.5-1.5,1.2l-3.9-1.4c0,0-0.2-2.6-0.4-3.8c-0.2-1.2-0.6-4.1-0.8-4.9
	c-0.1-0.8-0.3-4.7-0.2-5s0.2-0.8,0.3-1.2c0.1-0.4,0.1-2.3,0.2-3.2c0.1-0.9,0-1.3-0.2-1.8c-0.2-0.4-0.4-1.2-0.6-1.4
	c-0.2-0.2-0.5-0.4-0.4-0.7c0.1-0.3,0.4-0.9,0.4-1.3c0-0.4,0-0.9,0.1-1.2c0.1-0.3,0.3-0.6,0.4-0.8c0.1-0.1,0.6-0.2,0.6-0.2l0.3-0.3
	h1.1v-0.4h0.5v-0.7h-0.5v-2l0.4-0.3v-0.5h-3.5v-2.3c0,0,0.8-0.8,1-2c0.2-1.2-0.2-1.9-0.4-2.6c-0.3-0.7-1.1-2.5-1.2-3.8
	c0,0-0.5,2.1-1.1,2.5c-0.7,0.4-0.6,0.2-0.7-0.4c-0.1-0.5-0.3-0.8-0.3-0.8s-1,0.2-1,1.4c-0.1,1.1,0.2,1.5,0,1.8
	c-0.2,0.4-0.6,0.4-0.6,0.4s-0.2,1.5,0.2,2.3c0.4,0.8,1,1.1,1,1.1v2.4h-3.3v0.5l0.2,0.2v2h-0.5v0.7h0.6l0.2,0.4h1l0.1,0.3h0.7v1.8
	h0.5v1.1c0,0-0.6-0.1-0.6,0.4c-0.1,0.5,0.1,1,0.1,1s-0.5,0.1-0.6,0.5c-0.1,0.4,0,1.1,0,1.1s-0.5,0.3-0.4,0.7
	c0.1,0.4,0.6,1.1,0.6,1.1s-0.2,1.5,0.1,2.1c0.3,0.6,0.7,1.4,0.7,1.4v5.6c0,0-0.3,0.6-0.4,1.1c-0.1,0.6-0.3,3.4-0.4,4.3
	c-0.1,0.9-0.1,1.9,0,2.7c0.1,0.8,0.7,3.1,0.8,3.7c0.1,0.6-0.1,2.9-0.1,2.9s-0.7,1.3-1.4,2.1s-2.6,3.8-2.9,5c-0.3,1.2-0.2,3,0.1,3.5
	c0.3,0.5,0.9,1.1,0.9,1.1s-0.4,1.5-0.2,2c0.2,0.5,1.1,0.7,1.1,0.7s0.7,0.6,0.7,1.1c0,0.6-0.2,3.6-0.3,4.1s0,1.4,0.1,1.7
	c0.1,0.3-0.5,0.7-0.5,1.3c0.1,0.5,0.6,1.4,0.6,1.6c0,0.2,0.3,1.2,0.6,1.8c0.3,0.6,0.3,1.5,0.3,2.1c-0.1,0.6,0,6.4,0,6.4
	s-1.7,1.9-1.8,2.7c-0.2,0.7-0.2,1.6,0.8,2.2c0.9,0.6,2.1,0.1,2.4,0.3c0.3,0.2,0.6,0.8,0.6,0.8l-0.1,3.6c0,0-2.2,3.6-2.6,4.2
	c-0.4,0.6-0.9,1.1-0.7,2.5c0.2,1.4,1.5,1.5,1.5,1.5s0.2,2.5,0.3,3.1c0.2,0.7,0.3,1.5,0.4,2.4c0.1,0.9,0.1,4.3,0.1,5.5
	c0.1,1.3,0.1,3.1,0.1,3.4c-0.1,0.3-0.9,1-0.9,1.8s0.1,1.1,0.3,1.4c0.2,0.3,0.2,0.9,0.2,1.2c0,0.3-0.1,2.5-0.2,2.9
	c-0.1,0.5-0.7,1.9-0.7,2.8c0,0.9,0.1,4,0.1,5c0,0.9,0.2,3.4,0.2,4c0,0.6-0.3,1.7-0.2,2.7c0.1,1-0.1,1.9,0.1,2.5
	c0.1,0.5,0.1,1.6,0,1.9c-0.1,0.3-0.6,0.1-0.7,0.7c-0.1,0.6-0.3,2.5-0.3,2.5s-1,1-1.3,1.4c-0.3,0.4-1,1.3-1.3,1.9
	c-0.3,0.6-0.6,1.3-0.8,1.6c-0.2,0.3-0.1,0.9-0.2,1.1c-0.1,0.2-0.2,0.8-0.2,0.6s-2,0-2,0v5.9h-1.1l-3.7,1.6v3h1.1v3.7h-0.7v1.6h-0.7
	v0.5h-2v2.2h0.7v3.3h-1.7v2h1.9v0.8h1v2.1h-1v0.9h0.9v1l0.3,0.3c0,0,0,5.6,0,7.7c0,2.1-0.8,9.8-0.8,9.8h-1.3v1.1h1v6.2l-1.6,2.4v5.4
	h-2.1v-3.7h-2.2v5l1.3,0.9h0.8v2.4c0,0-1.1,0.1-1.1,1.3c0,1.3,0.7,1.6,1.1,1.6v1.4l-0.9,0.8l-4.5,10.5h-10.7v0.7h-0.8v11.2
	 M235.9,232.1l2.9,1l0.1,0.6l-0.7,0.6l-2,0L235.9,232.1z M239.3,240.8c-0.2,0.2-0.8,0.7-1,0.9c-0.2,0.2-0.4,0.7-0.5,0.9
	c0,0.2-0.5,0.2-0.4,0c0-0.2-0.1-2.3-0.1-2.5c0-0.3,0.1-2,0-2.5c-0.1-0.6-0.4-0.9-0.4-0.9s-0.2-0.6-0.3-0.8l1.7,0.1
	c0,0,0.3,0.6,0.3,0.8c0,0.2,0.3,0.9,0.3,1.3c0,0.3,0,1.2,0.1,1.5c0,0.2,0.4,0.5,0.4,0.6C239.4,240.3,239.4,240.6,239.3,240.8z"/>
<g>
	<g>
		<line class="st19" x1="231.2" y1="151.5" x2="231.2" y2="151.5"/>
		<line class="st20" x1="231.2" y1="154.4" x2="231.2" y2="184.9"/>
		<line class="st19" x1="231.2" y1="186.3" x2="231.2" y2="186.3"/>
	</g>
</g>
</svg>
